<?xml version="1.0" standalone="no"?>
<!DOCTYPE svg PUBLIC "-//W3C//DTD SVG 20010904//EN"
 "http://www.w3.org/TR/2001/REC-SVG-20010904/DTD/svg10.dtd">
<svg version="1.0" xmlns="http://www.w3.org/2000/svg"
 width="148.000000pt" height="151.000000pt" viewBox="0 0 148.000000 151.000000"
 preserveAspectRatio="xMidYMid meet">
<metadata>
Created by potrace 1.11, written by Peter Selinger 2001-2013
</metadata>
<g transform="translate(0.000000,151.000000) scale(0.100000,-0.100000)"
fill="#000000" stroke="none">
<path d="M645 1400 c-352 -48 -602 -355 -582 -714 22 -394 367 -688 749 -637
270 36 480 210 566 468 22 68 26 95 26 208 0 114 -4 140 -27 211 -102 307
-417 507 -732 464z m249 -95 c94 -25 184 -75 260 -146 130 -122 190 -259 190
-434 0 -216 -92 -383 -278 -506 -189 -125 -462 -124 -652 1 -130 85 -230 226
-265 370 -17 70 -17 200 0 270 50 207 217 380 426 441 77 23 240 25 319 4z"/>
<path d="M373 1107 c-14 -23 -50 -79 -80 -125 l-53 -83 2 -249 3 -248 78 123
77 123 0 125 0 124 40 61 40 62 76 0 c66 0 78 3 95 23 18 22 18 15 19 -381 l0
-403 68 3 67 3 5 404 c4 357 7 401 19 378 14 -26 18 -27 93 -27 l79 0 39 -62
40 -63 0 -127 0 -127 73 -120 c39 -66 75 -120 80 -121 4 0 7 111 7 248 l-1
247 -78 125 -78 125 -341 2 -342 2 -27 -42z"/>
</g>
</svg>
